<svg width="24" height="24" viewBox="0 0 24 24" fill="none" xmlns="http://www.w3.org/2000/svg">
<path d="M7.49 22.582C7.05698 22.2931 6.67253 21.9374 6.351 21.528C6.0001 21.1049 5.67454 20.6615 5.376 20.2C4.67432 19.1743 4.12495 18.0523 3.745 16.869C3.30403 15.5873 3.07404 14.2424 3.064 12.887C3.03332 11.5788 3.35009 10.2859 3.982 9.14C4.43392 8.31399 5.09811 7.62356 5.906 7.14C6.688 6.65496 7.58599 6.38902 8.506 6.37C8.85534 6.37351 9.20294 6.41985 9.541 6.508C9.807 6.581 10.128 6.7 10.522 6.847C11.022 7.039 11.3 7.158 11.392 7.186C11.6255 7.27993 11.8735 7.33239 12.125 7.341C12.3265 7.3285 12.5254 7.28846 12.716 7.222C12.849 7.176 13.1 7.094 13.458 6.938C13.811 6.81 14.092 6.7 14.314 6.618C14.6292 6.51763 14.9505 6.43779 15.276 6.379C15.6237 6.323 15.9768 6.3079 16.328 6.334C16.9359 6.37441 17.5346 6.50378 18.105 6.718C19.0223 7.07273 19.8082 7.70118 20.356 8.518C20.1198 8.66398 19.8976 8.83135 19.692 9.018C19.2452 9.4146 18.8647 9.88016 18.565 10.397C18.1722 11.1024 17.969 11.8976 17.975 12.705C17.9683 13.6351 18.2362 14.5464 18.745 15.325C19.1117 15.8858 19.59 16.3651 20.15 16.733C20.389 16.9011 20.6476 17.0394 20.92 17.145C20.81 17.488 20.689 17.823 20.549 18.153C20.2331 18.8922 19.8495 19.6005 19.403 20.269C19.008 20.846 18.696 21.277 18.46 21.561C18.1495 21.9445 17.7854 22.2813 17.379 22.561C16.9846 22.8221 16.522 22.9612 16.049 22.961C15.7288 22.9742 15.4086 22.9351 15.101 22.845C14.836 22.758 14.574 22.66 14.317 22.545C14.0482 22.422 13.7712 22.3178 13.488 22.233C13.14 22.1424 12.7816 22.0974 12.422 22.099C12.0635 22.0983 11.7064 22.1426 11.359 22.231C11.0757 22.3126 10.7981 22.4128 10.528 22.531C10.143 22.692 9.891 22.797 9.745 22.843C9.44967 22.9304 9.1454 22.9841 8.838 23.003C8.35384 22.9994 7.88097 22.8564 7.476 22.591L7.49 22.582ZM13.769 5.67C13.2152 5.96786 12.5897 6.10632 11.962 6.07C11.8801 5.43579 11.9653 4.7912 12.209 4.2C12.4202 3.6365 12.7304 3.1153 13.125 2.661C13.545 2.1855 14.0521 1.7948 14.619 1.51C15.1534 1.22087 15.7438 1.05033 16.35 1.01C16.4221 1.65252 16.3437 2.30302 16.121 2.91C15.9103 3.49616 15.6005 4.04176 15.205 4.523C14.8035 5.00179 14.3093 5.39434 13.752 5.677L13.769 5.67Z" fill="black"></path>
</svg>