<svg width="24" height="24" viewBox="0 0 24 24" fill="none" xmlns="http://www.w3.org/2000/svg">
<path d="M6 22H18L17 19H7L6 22Z" stroke="black"></path>
<path d="M11 15L10 19" stroke="black"></path>
<path d="M13 15L14 19" stroke="black"></path>
<path d="M6 2V9C6 10.5913 6.63214 12.1174 7.75736 13.2426C8.88258 14.3679 10.4087 15 12 15C13.5913 15 15.1174 14.3679 16.2426 13.2426C17.3679 12.1174 18 10.5913 18 9V2H6Z" stroke="black"></path>
<path d="M17.93 9.93C18.1159 9.97908 18.3077 10.0026 18.5 10C19.163 10 19.7989 9.73661 20.2678 9.26777C20.7366 8.79893 21 8.16304 21 7.5C21 6.83696 20.7366 6.20107 20.2678 5.73223C19.7989 5.26339 19.163 5 18.5 5C18.3337 4.98471 18.1663 4.98471 18 5" stroke="black"></path>
<path d="M6 5.05C5.83368 5.03471 5.66632 5.03471 5.5 5.05C4.83696 5.05 4.20107 5.31339 3.73223 5.78223C3.26339 6.25107 3 6.88696 3 7.55C3 8.21304 3.26339 8.84893 3.73223 9.31777C4.20107 9.78661 4.83696 10.05 5.5 10.05C5.6923 10.0526 5.88405 10.0291 6.07 9.98" stroke="black"></path>
</svg>