<svg width="24" height="24" viewBox="0 0 24 24" fill="none" xmlns="http://www.w3.org/2000/svg">
<path d="M6 8.5V10C5.99597 10.7737 5.71177 11.5197 5.2 12.1L4 13.7C3.35723 14.5688 3.00706 15.6193 3 16.7V17.5H21V16.7C20.9929 15.6193 20.6428 14.5688 20 13.7L18.8 12.1C18.2882 11.5197 18.004 10.7737 18 10V8.5C18 6.9087 17.3679 5.38258 16.2426 4.25736C15.1174 3.13214 13.5913 2.5 12 2.5C10.4087 2.5 8.88258 3.13214 7.75736 4.25736C6.63214 5.38258 6 6.9087 6 8.5Z" stroke="black"></path>
<path d="M15 18C15 18.7956 14.6839 19.5587 14.1213 20.1213C13.5587 20.6839 12.7956 21 12 21C11.2044 21 10.4413 20.6839 9.87868 20.1213C9.31607 19.5587 9 18.7956 9 18" stroke="black" stroke-linejoin="bevel"></path>
</svg>