<svg width="24" height="24" viewBox="0 0 24 24" fill="none" xmlns="http://www.w3.org/2000/svg">
<path d="M19.6887 9.78284C20.0254 7.36958 18.2856 6.19101 15.8723 5.34917L16.6581 2.26244L14.7499 1.75733L14.0203 4.78795L12.4489 4.39509L13.2346 1.36448L11.2703 0.859375L10.5407 4.00223L9.30602 3.72162L6.66827 3.04815L6.21929 5.06856L7.56623 5.40529C8.35194 5.62978 8.52031 6.19101 8.40806 6.58386L7.56623 10.1196L6.33153 15.1145C6.21929 15.3951 5.9948 15.7318 5.43357 15.5635L4.08663 15.2267L3.13255 17.4155L6.94888 18.3696L6.21929 21.5686L8.07133 22.0175L8.85704 18.9308L10.3162 19.2675L9.58663 22.3543L11.4948 22.8594L12.2805 19.7165C15.5356 20.3339 18.005 20.0533 19.0152 17.1349C19.8009 14.7777 18.9591 13.4308 17.2193 12.5328C18.454 12.2522 19.4081 11.4104 19.6887 9.78284ZM15.3672 15.8441C14.7499 18.1451 10.7652 16.9665 9.47439 16.6298L10.5407 12.4206C11.8315 12.7573 15.9846 13.3747 15.3672 15.8441ZM15.8723 9.6706C15.3672 11.8594 12.1121 10.793 10.9897 10.5124L11.9438 6.69611C13.0662 6.97672 16.4897 7.48182 15.8723 9.6706Z" fill="black"></path>
</svg>