<svg width="24" height="24" viewBox="0 0 24 24" fill="none" xmlns="http://www.w3.org/2000/svg">
<path d="M6.11072 4.07844C8.49454 5.86807 11.0586 9.49667 12 11.444C12.9415 9.49682 15.5054 5.86803 17.8893 4.07844C19.6093 2.78713 22.3962 1.78798 22.3962 4.96732C22.3962 5.60228 22.0322 10.3013 21.8187 11.0642C21.0765 13.7164 18.372 14.3929 15.9663 13.9835C20.1714 14.6992 21.2411 17.0698 18.9309 19.4404C14.5433 23.9427 12.6247 18.3108 12.1329 16.8677C12.0427 16.6031 12.0006 16.4794 11.9999 16.5846C11.9993 16.4793 11.9571 16.6031 11.867 16.8677C11.3754 18.3108 9.45678 23.9428 5.06897 19.4404C2.75871 17.0698 3.82841 14.699 8.03358 13.9835C5.62782 14.3929 2.92329 13.7164 2.18122 11.0642C1.96769 10.3012 1.60365 5.60221 1.60365 4.96732C1.60365 1.78798 4.39063 2.78713 6.1106 4.07844H6.11072Z" fill="black"></path>
</svg>