<svg width="24" height="24" viewBox="0 0 24 24" fill="none" xmlns="http://www.w3.org/2000/svg">
<path d="M5 7H21L19 15.5H7L4 3.5H1" stroke="black" stroke-miterlimit="10"></path>
<path d="M19 20C19 19.1716 18.3284 18.5 17.5 18.5C16.6716 18.5 16 19.1716 16 20C16 20.8284 16.6716 21.5 17.5 21.5C18.3284 21.5 19 20.8284 19 20Z" stroke="black" stroke-miterlimit="10"></path>
<path d="M10 20C10 19.1716 9.32843 18.5 8.5 18.5C7.67157 18.5 7 19.1716 7 20C7 20.8284 7.67157 21.5 8.5 21.5C9.32843 21.5 10 20.8284 10 20Z" stroke="black" stroke-miterlimit="10"></path>
</svg>