<svg width="24" height="24" viewBox="0 0 24 24" fill="none" xmlns="http://www.w3.org/2000/svg">
<path d="M6 19.5C6.0269 18.9483 5.94471 18.3967 5.75814 17.8768C5.57157 17.3569 5.28428 16.879 4.91273 16.4702C4.54118 16.0615 4.09266 15.7301 3.59285 15.495C3.09304 15.2599 2.55176 15.1257 2 15.1" stroke="black"></path>
<path d="M9.1 19.5C9.12663 18.5413 8.96406 17.5867 8.6216 16.6908C8.27914 15.7949 7.76349 14.9753 7.10413 14.2788C6.44476 13.5822 5.6546 13.0225 4.77881 12.6315C3.90302 12.2405 2.95876 12.0259 2 12" stroke="black"></path>
<path d="M3 19H2" stroke="black"></path>
<path d="M2.5 9.5V5H21.5V19H11.5" stroke="black" stroke-miterlimit="10"></path>
</svg>