<svg width="24" height="24" viewBox="0 0 24 24" fill="none" xmlns="http://www.w3.org/2000/svg">
<path d="M1.5 2.5L20.5 21.5" stroke="black" stroke-miterlimit="10"></path>
<path d="M17.58 18.58C15.8358 19.5592 13.8597 20.0497 11.86 20C11.2362 19.99 10.6142 19.9298 10 19.82L5.5 22L6 18.28C4.7948 17.5625 3.79406 16.5476 3.09366 15.3324C2.39326 14.1172 2.01668 12.7425 2 11.34C2.0326 10.2628 2.28749 9.20401 2.74868 8.23C3.20987 7.256 3.8674 6.38784 4.68 5.67999" stroke="black"></path>
<path d="M7.08002 4.08001C8.65939 3.33037 10.3922 2.96052 12.14 3.00001C17.66 3.09001 22.07 7.00001 22 11.66C21.9512 13.5946 21.1766 15.4401 19.83 16.83" stroke="black"></path>
</svg>