<svg width="24" height="24" viewBox="0 0 24 24" fill="none" xmlns="http://www.w3.org/2000/svg">
<path d="M18.6 18C19.7498 18.0003 20.8541 17.5505 21.6764 16.7468C22.4988 15.9432 22.9739 14.8495 23 13.7C23 12.5331 22.5364 11.4139 21.7113 10.5887C20.8861 9.76358 19.767 9.30001 18.6 9.30001H18.1C17.648 8.04348 16.8201 6.95665 15.7286 6.18728C14.6372 5.41792 13.3353 5.00337 12 5.00001C10.6747 4.99456 9.38148 5.4072 8.30426 6.17921C7.22704 6.95121 6.42072 8.04327 6 9.30001H5.4C4.23305 9.30001 3.11389 9.76358 2.28873 10.5887C1.46357 11.4139 1 12.5331 1 13.7C1.02613 14.8495 1.50121 15.9432 2.32356 16.7468C3.1459 17.5505 4.25017 18.0003 5.4 18H18.6Z" stroke="black" stroke-miterlimit="10"></path>
</svg>