<svg width="24" height="24" viewBox="0 0 24 24" fill="none" xmlns="http://www.w3.org/2000/svg">
<path d="M3.5 3.5L20.5 20.5" stroke="black" stroke-miterlimit="10"></path>
<path d="M21.4 17C21.8989 16.6067 22.3021 16.1055 22.5792 15.5339C22.8563 14.9623 23.0002 14.3352 23 13.7C23 12.533 22.5364 11.4139 21.7112 10.5887C20.8861 9.76356 19.7669 9.29999 18.6 9.29999H18.1C17.8009 8.43 17.3177 7.63472 16.6835 6.96835C16.0492 6.30198 15.2787 5.78018 14.4246 5.43851C13.5704 5.09684 12.6526 4.94334 11.7338 4.98846C10.8149 5.03359 9.91656 5.27628 9.09998 5.69999" stroke="black" stroke-miterlimit="10"></path>
<path d="M7.2 7.2C6.64913 7.80228 6.23922 8.51963 6 9.3H5.4C4.23305 9.3 3.11389 9.76357 2.28873 10.5887C1.46357 11.4139 1 12.533 1 13.7C1.02613 14.8495 1.50121 15.9432 2.32356 16.7468C3.1459 17.5505 4.25017 18.0003 5.4 18H18.1" stroke="black" stroke-miterlimit="10"></path>
</svg>