<svg width="24" height="24" viewBox="0 0 24 24" fill="none" xmlns="http://www.w3.org/2000/svg">
<path fill-rule="evenodd" clip-rule="evenodd" d="M11.4508 1.67245C11.7836 1.45159 12.2164 1.45159 12.5492 1.67245L22.0492 7.977C22.3265 8.16103 22.4932 8.47172 22.4932 8.80453V15.1954C22.4932 15.5283 22.3265 15.8389 22.0492 16.023L12.5492 22.3275C12.2164 22.5484 11.7836 22.5484 11.4508 22.3275L1.95082 16.023C1.67352 15.8389 1.50682 15.5283 1.50682 15.1954V8.80453C1.50682 8.47172 1.67352 8.16103 1.95082 7.977L11.4508 1.67245ZM3.49318 10.6556V13.3303L5.49463 11.9839L3.49318 10.6556ZM7.28607 13.1727L4.28768 15.1898L11.0068 19.6489V15.642L7.28607 13.1727ZM12.9932 15.642V19.6489L19.7123 15.1898L16.7139 13.1727L12.9932 15.642ZM18.5054 11.9839L20.5068 13.3303V10.6556L18.5054 11.9839ZM19.7039 8.80453L16.7214 10.7838L12.9932 8.27567V4.35109L19.7039 8.80453ZM11.0068 4.35109V8.27567L7.27856 10.7838L4.29615 8.80453L11.0068 4.35109ZM12 10.0015L9.07 11.9726L12 13.9171L14.93 11.9726L12 10.0015Z" fill="black"></path>
</svg>