<svg width="24" height="24" viewBox="0 0 24 24" fill="none" xmlns="http://www.w3.org/2000/svg">
<path d="M7 20H20V13H15.34" stroke="black"></path>
<path d="M10 18.7L19.5 8.56L15 4L11 7.5" stroke="black"></path>
<path d="M3 3H11V16C11 17.0609 10.5786 18.0783 9.82843 18.8284C9.07828 19.5786 8.06087 20 7 20C5.93913 20 4.92172 19.5786 4.17157 18.8284C3.42143 18.0783 3 17.0609 3 16V3Z" stroke="black"></path>
<path d="M7.5 16C7.5 15.7239 7.27614 15.5 7 15.5C6.72386 15.5 6.5 15.7239 6.5 16C6.5 16.2761 6.72386 16.5 7 16.5C7.27614 16.5 7.5 16.2761 7.5 16Z" stroke="black"></path>
</svg>