<svg width="24" height="24" viewBox="0 0 24 24" fill="none" xmlns="http://www.w3.org/2000/svg">
<path d="M4 18H2V5H14V8H18L22 13V18H20" stroke="black" stroke-miterlimit="10"></path>
<path d="M6 20C7.10457 20 8 19.1046 8 18C8 16.8954 7.10457 16 6 16C4.89543 16 4 16.8954 4 18C4 19.1046 4.89543 20 6 20Z" stroke="black"></path>
<path d="M18 20C19.1046 20 20 19.1046 20 18C20 16.8954 19.1046 16 18 16C16.8954 16 16 16.8954 16 18C16 19.1046 16.8954 20 18 20Z" stroke="black"></path>
<path d="M8 18H16" stroke="black" stroke-miterlimit="10"></path>
<path d="M14 8V18" stroke="black" stroke-miterlimit="10"></path>
<path d="M17 8V13H22" stroke="black" stroke-miterlimit="10"></path>
</svg>