<svg width="24" height="24" viewBox="0 0 24 24" fill="none" xmlns="http://www.w3.org/2000/svg">
<path d="M18.6 15.5C19.7498 15.5003 20.8541 15.0505 21.6764 14.2468C22.4988 13.4432 22.9739 12.3495 23 11.2C23 10.033 22.5364 8.91388 21.7113 8.08872C20.8861 7.26356 19.767 6.79999 18.6 6.79999H18.1C17.648 5.54347 16.8201 4.45663 15.7286 3.68727C14.6372 2.91791 13.3353 2.50336 12 2.49999C10.6747 2.49455 9.38148 2.90718 8.30426 3.67919C7.22704 4.4512 6.42072 5.54325 6 6.79999H5.4C4.23305 6.79999 3.11389 7.26356 2.28873 8.08872C1.46357 8.91388 1 10.033 1 11.2C1.02613 12.3495 1.50121 13.4432 2.32356 14.2468C3.1459 15.0505 4.25017 15.5003 5.4 15.5" stroke="black" stroke-miterlimit="10"></path>
<path d="M8.5 17L12 20L15.5 17" stroke="black" stroke-miterlimit="10"></path>
<path d="M12 20V12.5" stroke="black" stroke-miterlimit="10"></path>
</svg>