<svg width="24" height="24" viewBox="0 0 24 24" fill="none" xmlns="http://www.w3.org/2000/svg">
<path d="M9.459 4.8C9.459 4.75303 9.46826 4.70653 9.48627 4.66315C9.50427 4.61977 9.53066 4.58037 9.56391 4.54721C9.59717 4.51405 9.63664 4.48777 9.68007 4.46989C9.7235 4.45201 9.77003 4.44287 9.817 4.443H15.465C16.44 4.443 16.98 5.275 17.371 6.843L17.686 8.092H18.638C18.811 4.542 18.961 3 18.961 3C18.961 3 16.561 3.27 15.143 3.27H7.981L4.146 3.147V4.174L5.439 4.419C6.347 4.599 6.564 4.791 6.639 5.619C6.639 5.619 6.722 8.072 6.722 12.1C6.722 16.128 6.654 18.557 6.654 18.557C6.654 19.287 6.362 19.557 5.462 19.737L4.17 19.984V21L8.018 20.876H14.431C15.882 20.876 19.223 21 19.223 21C19.302 20.122 19.785 16.14 19.864 15.7H18.964L18 17.885C17.7808 18.5021 17.3527 19.023 16.7898 19.3578C16.227 19.6925 15.5649 19.8199 14.918 19.718H11.238C10.016 19.718 9.427 19.238 9.427 18.181V12.6C9.427 12.6 12.142 12.6 13.019 12.672C13.703 12.72 14.119 12.916 14.339 13.872L14.632 15.144H15.69L15.622 11.935L15.767 8.7H14.724L14.386 10.118C14.174 11.051 14.026 11.218 13.071 11.318C11.821 11.445 9.459 11.423 9.459 11.423V4.8Z" fill="black"></path>
</svg>