<svg width="24" height="24" viewBox="0 0 24 24" fill="none" xmlns="http://www.w3.org/2000/svg">
<path d="M3.5 3.5L20.5 20.5" stroke="black" stroke-miterlimit="10"></path>
<path d="M9 6.39997C9.9722 6.10718 10.985 5.97213 12 5.99997C14.0482 6.02811 16.0524 6.59809 17.8088 7.65196C19.5653 8.70583 21.0113 10.206 22 12C21.1396 13.6038 19.9046 14.976 18.4 16" stroke="black"></path>
<path d="M16.9 16.9C15.3606 17.6025 13.6919 17.9771 12 18C9.95184 17.9718 7.94764 17.4019 6.19119 16.348C4.43474 15.2941 2.98867 13.7939 2 12C3.17407 9.89518 4.94994 8.18894 7.1 7.09998" stroke="black"></path>
<path d="M12 9.00002C12.3977 8.98605 12.7941 9.05409 13.1644 9.19991C13.5347 9.34573 13.871 9.56621 14.1524 9.84762C14.4338 10.129 14.6543 10.4653 14.8001 10.8356C14.9459 11.2059 15.014 11.6023 15 12" stroke="black"></path>
<path d="M14.1 14.1C13.8371 14.3944 13.5127 14.6276 13.1499 14.7831C12.7871 14.9386 12.3946 15.0126 12 15C11.6023 15.014 11.2059 14.9459 10.8356 14.8001C10.4653 14.6543 10.129 14.4338 9.84762 14.1524C9.56621 13.871 9.34573 13.5347 9.19991 13.1644C9.05409 12.7941 8.98605 12.3978 9.00002 12C8.9874 11.6055 9.06145 11.213 9.21695 10.8501C9.37244 10.4873 9.60561 10.163 9.90002 9.90002" stroke="black"></path>
</svg>