<svg width="24" height="24" viewBox="0 0 24 24" fill="none" xmlns="http://www.w3.org/2000/svg">
<path d="M12 7L3.99998 15C3.73617 15.266 3.58815 15.6254 3.58815 16C3.58815 16.3746 3.73617 16.734 3.99998 17L2.49998 18.5C2.30284 18.6969 2.14645 18.9307 2.03974 19.1881C1.93304 19.4455 1.87811 19.7214 1.87811 20C1.87811 20.2786 1.93304 20.5545 2.03974 20.8119C2.14645 21.0693 2.30284 21.3031 2.49998 21.5C2.69688 21.6971 2.9307 21.8535 3.18808 21.9602C3.44546 22.0669 3.72136 22.1219 3.99998 22.1219C4.27861 22.1219 4.5545 22.0669 4.81188 21.9602C5.06926 21.8535 5.30309 21.6971 5.49998 21.5L6.99998 20C7.26594 20.2638 7.62537 20.4118 7.99998 20.4118C8.37459 20.4118 8.73402 20.2638 8.99998 20L17 12" stroke="black" stroke-miterlimit="10"></path>
<path d="M8 16L14.42 9.58002" stroke="black" stroke-miterlimit="10"></path>
<path d="M13.0045 3.99596L11.0034 5.99707L18.0037 12.9974L20.0048 10.9963L13.0045 3.99596Z" stroke="black" stroke-miterlimit="10"></path>
<path d="M18.62 9.62L21.12 7.12C21.6499 6.5513 21.9384 5.79911 21.9247 5.02191C21.911 4.2447 21.5961 3.50316 21.0465 2.95351C20.4968 2.40386 19.7553 2.08901 18.9781 2.0753C18.2009 2.06158 17.4487 2.35008 16.88 2.88L14.38 5.38" stroke="black" stroke-miterlimit="10"></path>
</svg>