<svg width="24" height="24" viewBox="0 0 24 24" fill="none" xmlns="http://www.w3.org/2000/svg">
<path d="M22.06 11.987C22.0597 10.0644 21.5085 8.18206 20.4717 6.56294C19.4348 4.94383 17.9558 3.6557 16.2096 2.85105C14.4635 2.04641 12.5233 1.75894 10.6188 2.02269C8.71437 2.28643 6.92535 3.09035 5.46358 4.33926C4.00181 5.58817 2.92849 7.22977 2.37071 9.06972C1.81292 10.9097 1.79401 12.8709 2.31623 14.7213C2.83845 16.5717 3.87992 18.2336 5.31735 19.5105C6.75478 20.7873 8.52797 21.6256 10.427 21.926V14.9H7.872V11.987H10.427V9.771C10.3721 9.25334 10.4318 8.72994 10.6017 8.23788C10.7716 7.74581 11.0476 7.29713 11.4101 6.92358C11.7727 6.55004 12.213 6.26079 12.6998 6.0763C13.1865 5.89181 13.7079 5.8166 14.227 5.856C14.9815 5.8675 15.7342 5.93435 16.479 6.056V8.529H15.211C14.9948 8.50024 14.7749 8.52047 14.5676 8.58821C14.3603 8.65594 14.1709 8.76945 14.0134 8.92031C13.8559 9.07118 13.7344 9.25555 13.6578 9.45975C13.5812 9.66396 13.5515 9.88278 13.571 10.1V11.987H16.362L15.915 14.9H13.571V21.93C15.9381 21.5549 18.0937 20.3474 19.6499 18.5247C21.2061 16.7019 22.0607 14.3837 22.06 11.987Z" fill="black"></path>
</svg>