<svg width="24" height="24" viewBox="0 0 24 24" fill="none" xmlns="http://www.w3.org/2000/svg">
<path fill-rule="evenodd" clip-rule="evenodd" d="M4.78094 5.43737C4.78094 6.80634 5.48052 8.01388 6.54105 8.71871C5.99973 9.078 5.55572 9.56565 5.24861 10.1382C4.94151 10.7107 4.78084 11.3504 4.78094 12.0001C4.78094 13.369 5.48052 14.5766 6.54105 15.2814C5.97385 15.6579 5.51394 16.1749 5.20621 16.7822C4.89848 17.3894 4.75343 18.0661 4.78524 18.7461C4.81704 19.4261 5.0246 20.0863 5.38766 20.6621C5.75073 21.238 6.25689 21.7099 6.85675 22.0318C7.45661 22.3537 8.12967 22.5145 8.81025 22.4987C9.49083 22.4828 10.1557 22.2908 10.7399 21.9413C11.3241 21.5919 11.8078 21.0969 12.1436 20.5048C12.4795 19.9126 12.6561 19.2435 12.6562 18.5627V14.9349C13.0594 15.295 13.5326 15.5683 14.0461 15.7376C14.5596 15.9069 15.1024 15.9686 15.6408 15.9189C16.1792 15.8693 16.7016 15.7092 17.1754 15.4488C17.6493 15.1884 18.0644 14.8332 18.395 14.4054C18.7256 13.9775 18.9645 13.4861 19.0968 12.9619C19.2292 12.4377 19.2522 11.8918 19.1643 11.3583C19.0765 10.8248 18.8797 10.3151 18.5863 9.86097C18.2928 9.40685 17.909 9.01801 17.4587 8.71871C18.1637 8.25109 18.6993 7.56885 18.9863 6.77305C19.2733 5.97724 19.2963 5.11017 19.052 4.30025C18.8077 3.49032 18.309 2.78061 17.6299 2.27622C16.9507 1.77182 16.1272 1.49956 15.2812 1.49976H8.71855C7.67423 1.49976 6.67268 1.91461 5.93424 2.65306C5.19579 3.3915 4.78094 4.39305 4.78094 5.43737ZM15.2812 8.06244C15.9775 8.06244 16.6451 7.78587 17.1374 7.29358C17.6297 6.80128 17.9063 6.13358 17.9063 5.43737C17.9063 4.74115 17.6297 4.07346 17.1374 3.58116C16.6451 3.08886 15.9775 2.81229 15.2812 2.81229H12.6562V8.06244H15.2812ZM12.6562 12.0001C12.6562 12.6963 12.9327 13.364 13.425 13.8563C13.9173 14.3486 14.585 14.6251 15.2812 14.6251C15.9775 14.6251 16.6451 14.3486 17.1374 13.8563C17.6297 13.364 17.9063 12.6963 17.9063 12.0001C17.9063 11.3038 17.6297 10.6361 17.1374 10.1438C16.6451 9.65155 15.9775 9.37498 15.2812 9.37498C14.585 9.37498 13.9173 9.65155 13.425 10.1438C12.9327 10.6361 12.6562 11.3038 12.6562 12.0001ZM11.3436 14.6251H8.71855C8.02234 14.6251 7.35464 14.3486 6.86234 13.8563C6.37005 13.364 6.09348 12.6963 6.09348 12.0001C6.09348 11.3038 6.37005 10.6361 6.86234 10.1438C7.35464 9.65155 8.02234 9.37498 8.71855 9.37498H11.3436V14.6251ZM8.71855 15.9377H11.3436V18.5627C11.3436 19.0819 11.1897 19.5895 10.9012 20.0212C10.6128 20.4528 10.2028 20.7893 9.72312 20.988C9.24345 21.1867 8.71564 21.2387 8.20642 21.1374C7.69721 21.0361 7.22947 20.7861 6.86234 20.419C6.49522 20.0518 6.2452 19.5841 6.14392 19.0749C6.04263 18.5657 6.09461 18.0378 6.2933 17.5582C6.49198 17.0785 6.82845 16.6685 7.26014 16.3801C7.69183 16.0916 8.19936 15.9377 8.71855 15.9377ZM11.3436 8.06244H8.71855C8.02234 8.06244 7.35464 7.78587 6.86234 7.29358C6.37005 6.80128 6.09348 6.13358 6.09348 5.43737C6.09348 4.74115 6.37005 4.07346 6.86234 3.58116C7.35464 3.08886 8.02234 2.81229 8.71855 2.81229H11.3436V8.06244Z" fill="black"></path>
</svg>