<svg width="24" height="24" viewBox="0 0 24 24" fill="none" xmlns="http://www.w3.org/2000/svg">
<path d="M12 12C12 10.16 13.49 8.67 15.33 8.67C17.17 8.67 18.66 10.16 18.66 12C18.66 13.84 17.17 15.33 15.33 15.33C13.49 15.33 12 13.84 12 12Z" fill="black"></path>
<path d="M5.33 18.67C5.33 16.83 6.82 15.34 8.66 15.34H11.99V18.67C11.99 20.51 10.5 22 8.66 22C6.82 22 5.33 20.51 5.33 18.67Z" fill="black"></path>
<path d="M12 2V8.67H15.33C17.17 8.67 18.66 7.18 18.66 5.34C18.66 3.5 17.17 2.01 15.33 2.01H12V2Z" fill="black"></path>
<path d="M5.33 5.33C5.33 7.17 6.82 8.66 8.66 8.66H11.99V2H8.66C6.82 2 5.33 3.49 5.33 5.33Z" fill="black"></path>
<path d="M5.33 12C5.33 13.84 6.82 15.33 8.66 15.33H11.99V8.66H8.66C6.82 8.66 5.33 10.15 5.33 11.99V12Z" fill="black"></path>
</svg>