<svg width="24" height="24" viewBox="0 0 24 24" fill="none" xmlns="http://www.w3.org/2000/svg">
<path d="M2 12C1.9996 12.9176 2.27137 13.8148 2.78091 14.5779C3.29045 15.3411 4.01489 15.936 4.86258 16.2874C5.71027 16.6388 6.64313 16.7309 7.54317 16.552C8.4432 16.3732 9.26998 15.9314 9.91891 15.2826C10.5679 14.6338 11.0098 13.8071 11.1888 12.9071C11.3679 12.0071 11.276 11.0743 10.9248 10.2265C10.5736 9.37874 9.97883 8.65417 9.21577 8.14447C8.45272 7.63476 7.55564 7.3628 6.638 7.363C5.4081 7.363 4.22856 7.85151 3.35879 8.72109C2.48903 9.59066 2.00027 10.7701 2 12ZM12.722 12C12.7216 12.9175 12.9933 13.8145 13.5027 14.5776C14.0121 15.3407 14.7364 15.9356 15.5839 16.2871C16.4314 16.6386 17.3641 16.7309 18.2641 16.5523C19.164 16.3736 19.9908 15.9322 20.6399 15.2837C21.2889 14.6352 21.7311 13.8088 21.9105 12.909C22.0899 12.0092 21.9984 11.0764 21.6476 10.2286C21.2969 9.38076 20.7026 8.65599 19.94 8.14592C19.1773 7.63586 18.2805 7.3634 17.363 7.363C16.7537 7.36248 16.1503 7.48203 15.5873 7.71482C15.0242 7.94762 14.5126 8.28909 14.0816 8.71973C13.6506 9.15037 13.3086 9.66173 13.0754 10.2246C12.8421 10.7874 12.722 11.3907 12.722 12Z" fill="black"></path>
</svg>