<svg width="24" height="24" viewBox="0 0 24 24" fill="none" xmlns="http://www.w3.org/2000/svg">
<path d="M12 2.247C9.62482 2.24599 7.32683 3.09045 5.51745 4.62917C3.70808 6.16789 2.50547 8.30041 2.12495 10.6449C1.74442 12.9894 2.21083 15.3928 3.44066 17.4248C4.67049 19.4568 6.58343 20.9847 8.83701 21.735C9.33701 21.829 9.52101 21.52 9.52101 21.254C9.52101 21.017 9.51201 20.387 9.50801 19.554C6.72701 20.154 6.14001 18.212 6.14001 18.212C5.9554 17.6074 5.56062 17.0889 5.02701 16.75C4.12201 16.13 5.09801 16.142 5.09801 16.142C5.41478 16.1858 5.71737 16.3013 5.9827 16.4798C6.24803 16.6583 6.46908 16.8951 6.62901 17.172C6.7649 17.4186 6.94832 17.6359 7.16868 17.8112C7.38904 17.9866 7.64197 18.1165 7.91284 18.1935C8.18371 18.2705 8.46715 18.293 8.74679 18.2598C9.02642 18.2266 9.2967 18.1383 9.54201 18C9.58642 17.493 9.81098 17.0187 10.175 16.663C7.95401 16.413 5.62001 15.553 5.62001 11.721C5.60586 10.7289 5.97437 9.76951 6.64901 9.042C6.33796 8.18271 6.36947 7.23668 6.73701 6.4C6.73701 6.4 7.57401 6.132 9.48701 7.425C11.1232 6.97435 12.8508 6.97435 14.487 7.425C16.387 6.132 17.224 6.4 17.224 6.4C17.5874 7.23872 17.6231 8.18324 17.324 9.047C17.9972 9.77674 18.3641 10.7373 18.349 11.73C18.349 15.572 16.012 16.417 13.787 16.663C14.024 16.9061 14.2066 17.1967 14.323 17.5156C14.4394 17.8345 14.4867 18.1744 14.462 18.513C14.462 19.852 14.449 20.927 14.449 21.252C14.449 21.514 14.624 21.827 15.137 21.727C17.3976 20.9868 19.3197 19.464 20.5576 17.4329C21.7955 15.4017 22.2679 12.9954 21.8897 10.647C21.5115 8.29856 20.3076 6.16221 18.4947 4.62233C16.6817 3.08245 14.3787 2.24015 12 2.247Z" fill="black"></path>
</svg>