<svg width="24" height="24" viewBox="0 0 24 24" fill="none" xmlns="http://www.w3.org/2000/svg">
<path d="M12.19 10.642V13.9H17.578C17.3309 15.1211 16.6479 16.2106 15.6564 16.9651C14.665 17.7195 13.4328 18.0874 12.19 18C10.5987 18 9.07258 17.3679 7.94736 16.2426C6.82214 15.1174 6.19 13.5913 6.19 12C6.19 10.4087 6.82214 8.88258 7.94736 7.75736C9.07258 6.63214 10.5987 6 12.19 6C13.5961 5.97074 14.9571 6.49674 15.978 7.464L18.554 4.979C16.8341 3.3592 14.5524 2.47042 12.19 2.5C9.67045 2.5 7.25408 3.50089 5.47249 5.28248C3.69089 7.06408 2.69 9.48044 2.69 12C2.69 14.5196 3.69089 16.9359 5.47249 18.7175C7.25408 20.4991 9.67045 21.5 12.19 21.5C17.673 21.5 21.31 17.645 21.31 12.217C21.3085 11.6885 21.2583 11.1613 21.16 10.642H12.19Z" fill="black"></path>
</svg>