<svg width="24" height="24" viewBox="0 0 24 24" fill="none" xmlns="http://www.w3.org/2000/svg">
<path d="M7 5.5C6.14641 5.5 5.30117 5.66813 4.51256 5.99478C3.72394 6.32144 3.00739 6.80022 2.40381 7.40381C1.18482 8.62279 0.5 10.2761 0.5 12C0.5 12.14 0.5 12.29 0.5 12.43C0.583797 13.6939 1.03504 14.9057 1.79828 15.9166C2.56151 16.9275 3.60347 17.6934 4.79609 18.1201C5.98871 18.5468 7.28001 18.6157 8.51128 18.3184C9.74256 18.0212 10.8601 17.3706 11.7267 16.4467C12.5932 15.5229 13.1709 14.366 13.3889 13.1182C13.6068 11.8704 13.4553 10.5862 12.9532 9.4233C12.4511 8.26042 11.6202 7.26958 10.5625 6.57258C9.50489 5.87558 8.26665 5.50277 7 5.5Z" fill="black"></path>
<path d="M22.36 6.52C21.72 6.52 21.21 8.98 21.21 12.03C21.21 15.08 21.72 17.54 22.36 17.54C23 17.54 23.5 15.07 23.5 12C23.5 8.93 23 6.52 22.36 6.52Z" fill="black"></path>
<path d="M17.34 5.84C15.55 5.84 14.09 8.6 14.09 12.01C14.09 15.42 15.55 18.19 17.34 18.19C19.13 18.19 20.59 15.42 20.59 12.01C20.59 8.6 19.13 5.84 17.34 5.84Z" fill="black"></path>
</svg>