<svg width="24" height="24" viewBox="0 0 24 24" fill="none" xmlns="http://www.w3.org/2000/svg">
<path d="M1.99999 11.7C1.99211 10.3985 2.24765 9.1088 2.75125 7.90861C3.25484 6.70843 3.99607 5.62254 4.93032 4.71632C5.86456 3.8101 6.97251 3.10228 8.18748 2.63547C9.40244 2.16865 10.6993 1.9525 12 2.00001C14.5726 2.00001 17.0398 3.02197 18.8589 4.84107C20.678 6.66017 21.7 9.12741 21.7 11.7C21.7 14.2726 20.678 16.7398 18.8589 18.5589C17.0398 20.378 14.5726 21.4 12 21.4C11.0235 21.4023 10.0512 21.2735 9.10899 21.017C8.93157 20.9689 8.74299 20.9834 8.57499 21.058L6.58399 21.933C6.46395 21.9864 6.3326 22.0095 6.20155 22.0001C6.07049 21.9907 5.94376 21.9492 5.83256 21.8792C5.72135 21.8092 5.6291 21.7129 5.56395 21.5988C5.49879 21.4847 5.46275 21.3563 5.45899 21.225L5.39999 19.441C5.39549 19.3335 5.36955 19.2279 5.3237 19.1306C5.27785 19.0332 5.21301 18.946 5.13299 18.874C4.13062 17.9698 3.33266 16.8622 2.79239 15.6251C2.25213 14.388 1.98198 13.0498 1.99999 11.7ZM8.93399 9.87601L5.99999 14.542C5.93902 14.6351 5.91316 14.7469 5.92704 14.8574C5.94092 14.9678 5.99364 15.0697 6.07576 15.1449C6.15789 15.22 6.26407 15.2635 6.37531 15.2676C6.48656 15.2716 6.59562 15.236 6.68299 15.167L9.84099 12.775C9.9446 12.6943 10.0722 12.6505 10.2035 12.6505C10.3348 12.6505 10.4624 12.6943 10.566 12.775L12.899 14.525C13.0647 14.6489 13.2542 14.7371 13.4556 14.7842C13.657 14.8313 13.866 14.8362 14.0695 14.7986C14.2729 14.761 14.4663 14.6818 14.6376 14.5659C14.809 14.45 14.9545 14.2999 15.065 14.125L18 9.45901C18.0594 9.36577 18.084 9.25458 18.0695 9.145C18.055 9.03541 18.0024 8.93443 17.9208 8.8598C17.8393 8.78518 17.7341 8.74168 17.6236 8.73697C17.5132 8.73225 17.4046 8.76661 17.317 8.83401L14.159 11.225C14.0571 11.3061 13.9307 11.3502 13.8005 11.3502C13.6703 11.3502 13.5439 11.3061 13.442 11.225L11.108 9.47601C10.7907 9.23646 10.3913 9.13265 9.99756 9.18741C9.6038 9.24216 9.24787 9.45098 9.00799 9.76801C8.98151 9.80273 8.95681 9.83878 8.93399 9.87601Z" fill="black"></path>
</svg>