<svg width="24" height="24" viewBox="0 0 24 24" fill="none" xmlns="http://www.w3.org/2000/svg">
<path d="M16.5 15.5C14.3783 15.5 12.3434 14.6571 10.8431 13.1568C9.34285 11.6565 8.5 9.62171 8.5 7.49998C8.49084 5.49898 9.24136 3.56906 10.6 2.09998C8.75976 2.35984 7.02835 3.12738 5.60005 4.31647C4.17175 5.50557 3.10308 7.06916 2.51395 8.83181C1.92482 10.5945 1.83855 12.4864 2.26481 14.2953C2.69108 16.1043 3.61301 17.7587 4.92716 19.0728C6.24131 20.387 7.89568 21.3089 9.70463 21.7352C11.5136 22.1614 13.4055 22.0751 15.1682 21.486C16.9308 20.8969 18.4944 19.8282 19.6835 18.3999C20.8726 16.9716 21.6401 15.2402 21.9 13.4C20.4309 14.7586 18.501 15.5091 16.5 15.5Z" stroke="black" stroke-linejoin="bevel"></path>
</svg>