<svg width="24" height="24" viewBox="0 0 24 24" fill="none" xmlns="http://www.w3.org/2000/svg">
<path d="M3 2L23 22" stroke="black" stroke-miterlimit="10"></path>
<path d="M9.71002 4.71L20 3V15" stroke="black"></path>
<path d="M8 18V7" stroke="black"></path>
<path d="M5 21C6.65685 21 8 19.6569 8 18C8 16.3431 6.65685 15 5 15C3.34315 15 2 16.3431 2 18C2 19.6569 3.34315 21 5 21Z" stroke="black"></path>
<path d="M19.12 18.12C18.8454 18.4148 18.5142 18.6512 18.1462 18.8151C17.7782 18.9791 17.3809 19.0673 16.9781 19.0744C16.5753 19.0815 16.1752 19.0074 15.8016 18.8565C15.4281 18.7056 15.0887 18.481 14.8039 18.1962C14.519 17.9113 14.2944 17.5719 14.1435 17.1984C13.9926 16.8248 13.9185 16.4247 13.9256 16.0219C13.9327 15.6191 14.0209 15.2218 14.1849 14.8539C14.3488 14.4859 14.5853 14.1547 14.88 13.88" stroke="black"></path>
<path d="M13.14 8.14L20 7" stroke="black"></path>
</svg>