<svg width="24" height="24" viewBox="0 0 24 24" fill="none" xmlns="http://www.w3.org/2000/svg">
<path d="M14.0389 8.40546C13.6924 8.75194 13.1 8.50655 13.1 8.01655V1H10.9V9.25C10.9 10.1613 10.1613 10.9 9.25 10.9H1V13.1H8.01655C8.50655 13.1 8.75194 13.6924 8.40546 14.0389L3.52218 18.9222L5.07782 20.4778L9.96111 15.5946C10.3066 15.2491 10.8965 15.492 10.9 15.9791V23L13.1 23L13.1 14.75C13.1 13.8387 13.8387 13.1 14.75 13.1H23V10.9H15.9791C15.4934 10.8965 15.2505 10.31 15.5915 9.96416L15.5945 9.96111L20.4778 5.07782L18.9222 3.5222L14.0389 8.40546Z" fill="black"></path>
</svg>