<svg width="24" height="24" viewBox="0 0 24 24" fill="none" xmlns="http://www.w3.org/2000/svg">
<path d="M21.3909 12.2606L12.8909 20.7606C12.3043 21.3593 11.6042 21.8349 10.8315 22.1596C10.0588 22.4843 9.22907 22.6515 8.39092 22.6515C7.55277 22.6515 6.72305 22.4843 5.95035 22.1596C5.17764 21.8349 4.4775 21.3593 3.89092 20.7606C3.29224 20.174 2.81663 19.4739 2.49194 18.7012C2.16724 17.9285 2 17.0988 2 16.2606C2 15.4225 2.16724 14.5927 2.49194 13.82C2.81663 13.0473 3.29224 12.3472 3.89092 11.7606L12.3909 3.26061C12.782 2.86149 13.2487 2.54442 13.7639 2.32796C14.279 2.1115 14.8322 2 15.3909 2C15.9497 2 16.5028 2.1115 17.018 2.32796C17.5331 2.54442 17.9999 2.86149 18.3909 3.26061C18.79 3.65167 19.1071 4.11843 19.3236 4.63356C19.54 5.1487 19.6515 5.70185 19.6515 6.26061C19.6515 6.81938 19.54 7.37253 19.3236 7.88766C19.1071 8.40279 18.79 8.86956 18.3909 9.26061L9.89092 17.7606C9.48366 18.1402 8.94764 18.3513 8.39092 18.3513C7.8342 18.3513 7.29817 18.1402 6.89092 17.7606C6.51133 17.3534 6.30027 16.8173 6.30027 16.2606C6.30027 15.7039 6.51133 15.1679 6.89092 14.7606L14.3909 7.26061" stroke="black" stroke-miterlimit="10"></path>
</svg>