<svg width="24" height="24" viewBox="0 0 24 24" fill="none" xmlns="http://www.w3.org/2000/svg">
<path d="M14.54 3.4C13.2601 3.39783 12.0083 3.77527 10.9429 4.48459C9.87745 5.19391 9.04633 6.20325 8.55461 7.38495C8.06288 8.56666 7.93264 9.86764 8.18035 11.1234C8.42807 12.3791 9.04261 13.5332 9.94625 14.4396C10.8499 15.346 12.0021 15.9642 13.257 16.2157C14.512 16.4673 15.8133 16.3411 16.9966 15.853C18.1798 15.365 19.1917 14.537 19.9043 13.4738C20.6169 12.4106 20.9982 11.1599 21 9.88C20.9979 8.16551 20.3173 6.52154 19.1068 5.30733C17.8963 4.09312 16.2545 3.4074 14.54 3.4ZM3 20.661H6.167V3.4H3" fill="black"></path>
</svg>