<svg width="24" height="24" viewBox="0 0 24 24" fill="none" xmlns="http://www.w3.org/2000/svg">
<path d="M8.17001 7.44H4.82001V21H8.17001V7.44Z" fill="black"></path>
<path fill-rule="evenodd" clip-rule="evenodd" d="M18.69 8.22C18.69 5.34 16.35 3 13.47 3H4.82001V5.9H13.05C14.35 5.9 15.43 6.92 15.46 8.18C15.47 8.81 15.24 9.4 14.79 9.85C14.35 10.3 13.76 10.55 13.13 10.55H9.92001C9.81001 10.55 9.71001 10.64 9.71001 10.76V13.33C9.71001 13.33 9.72001 13.42 9.75001 13.45L15.19 21H19.17L13.72 13.43C16.47 13.29 18.68 10.98 18.68 8.22H18.69Z" fill="black"></path>
</svg>