<svg width="24" height="24" viewBox="0 0 24 24" fill="none" xmlns="http://www.w3.org/2000/svg">
<path d="M15.2 19.1L14.2 22H9.80001L8.80001 19.1L7.50001 18.3L4.50001 18.9L2.20001 15.1L4.30001 12.8V11.2L2.20001 8.9L4.50001 5.1L7.50001 5.7L8.80001 4.9L9.80001 2H14.2L15.2 4.9L16.5 5.7L19.5 5.1L21.8 8.9L19.7 11.2V12.8L21.8 15.1L19.5 18.9L16.5 18.3L15.2 19.1Z" stroke="black"></path>
<path d="M12 15C13.6569 15 15 13.6569 15 12C15 10.3431 13.6569 9 12 9C10.3431 9 9 10.3431 9 12C9 13.6569 10.3431 15 12 15Z" stroke="black" stroke-miterlimit="10"></path>
</svg>