<svg width="24" height="24" viewBox="0 0 24 24" fill="none" xmlns="http://www.w3.org/2000/svg">
<path d="M18.5 8.5C20.433 8.5 22 6.933 22 5C22 3.067 20.433 1.5 18.5 1.5C16.567 1.5 15 3.067 15 5C15 6.933 16.567 8.5 18.5 8.5Z" stroke="black"></path>
<path d="M18.5 22.5C20.433 22.5 22 20.933 22 19C22 17.067 20.433 15.5 18.5 15.5C16.567 15.5 15 17.067 15 19C15 20.933 16.567 22.5 18.5 22.5Z" stroke="black"></path>
<path d="M5.5 15.5C7.433 15.5 9 13.933 9 12C9 10.067 7.433 8.5 5.5 8.5C3.567 8.5 2 10.067 2 12C2 13.933 3.567 15.5 5.5 15.5Z" stroke="black"></path>
<path d="M8.58002 13.66L15.42 17.34" stroke="black"></path>
<path d="M15.42 6.66L8.58002 10.34" stroke="black"></path>
</svg>