<svg width="24" height="24" viewBox="0 0 24 24" fill="none" xmlns="http://www.w3.org/2000/svg">
<path d="M12.055 17.442C8.87 17.442 7.447 15.875 7.447 14.7C7.44321 14.5619 7.46807 14.4246 7.52 14.2966C7.57194 14.1686 7.64983 14.0527 7.74876 13.9563C7.84769 13.86 7.96551 13.7851 8.09481 13.7365C8.22411 13.6879 8.36207 13.6666 8.5 13.674C9.864 13.674 9.508 15.635 12.053 15.635C13.353 15.635 14.071 14.926 14.071 14.201C14.071 13.765 13.858 13.282 12.999 13.07L10.168 12.361C7.888 11.788 7.474 10.551 7.474 9.391C7.474 6.979 9.739 6.074 11.867 6.074C13.823 6.074 16.137 7.161 16.137 8.606C16.1295 8.74735 16.0933 8.88569 16.0306 9.01261C15.968 9.13952 15.8801 9.25235 15.7724 9.34422C15.6647 9.43609 15.5395 9.50508 15.4043 9.54699C15.2691 9.5889 15.1268 9.60286 14.986 9.588C13.823 9.588 14.038 7.975 11.686 7.975C10.523 7.975 9.871 8.501 9.871 9.255C9.871 10.009 10.784 10.255 11.579 10.433L13.667 10.897C15.955 11.411 16.536 12.754 16.536 14.02C16.536 15.98 15.03 17.443 12.006 17.443M20.781 13.578L20.758 13.685L20.723 13.495C20.735 13.53 20.758 13.553 20.77 13.595C20.8652 13.0586 20.913 12.5148 20.913 11.97C20.9129 10.7911 20.6804 9.62388 20.2288 8.53497C19.7772 7.44606 19.1153 6.45687 18.281 5.624C17.4649 4.80796 16.5007 4.15497 15.44 3.7C14.3674 3.20137 13.1967 2.94953 12.014 2.963C11.4435 2.9633 10.8743 3.01754 10.314 3.125L10.408 3.172L10.219 3.146L10.313 3.126C9.30123 2.59148 8.14383 2.39816 7.01327 2.57485C5.88271 2.75154 4.83949 3.28878 4.03906 4.10652C3.23863 4.92427 2.72383 5.97874 2.57137 7.11282C2.41891 8.24691 2.63695 9.3999 3.193 10.4L3.209 10.3L3.242 10.489L3.193 10.4C3.1027 10.9111 3.0582 11.429 3.058 11.948C3.05648 13.1496 3.29445 14.3394 3.758 15.448C4.20142 16.5174 4.85461 17.4872 5.679 18.3C6.49438 19.1208 7.46079 19.7761 8.525 20.23C9.62652 20.7028 10.8133 20.9448 12.012 20.941C12.5369 20.9414 13.0607 20.8939 13.577 20.799L13.483 20.75L13.673 20.787L13.566 20.81C14.3731 21.2662 15.2857 21.5027 16.2128 21.4959C17.1399 21.4892 18.0489 21.2393 18.8493 20.7713C19.6496 20.3034 20.3132 19.6336 20.7737 18.829C21.2343 18.0244 21.4758 17.1131 21.474 16.186C21.4715 15.2809 21.2396 14.3912 20.8 13.6" fill="black"></path>
</svg>