<svg width="24" height="24" viewBox="0 0 24 24" fill="none" xmlns="http://www.w3.org/2000/svg">
<path d="M12.184 2C13.3033 1.98605 14.402 2.30199 15.3429 2.9084C16.2838 3.51482 17.0254 4.38487 17.475 5.41C17.8572 6.81852 17.9477 8.29026 17.741 9.735V9.788C17.73 9.949 17.721 10.096 17.714 10.243C17.8239 10.3016 17.9476 10.3296 18.072 10.324C18.3934 10.2939 18.706 10.2026 18.993 10.055C19.1214 9.99089 19.2635 9.95897 19.407 9.962C19.5624 9.95974 19.7167 9.98688 19.862 10.042C20.0358 10.0822 20.1925 10.1761 20.3098 10.3103C20.4272 10.4446 20.4994 10.6124 20.516 10.79C20.53 11.19 20.168 11.539 19.434 11.832C19.355 11.858 19.248 11.899 19.127 11.938C18.727 12.059 18.111 12.26 17.938 12.661C17.899 12.7903 17.8884 12.9264 17.9068 13.0602C17.9253 13.1939 17.9724 13.3221 18.045 13.436L18.058 13.449C18.112 13.57 19.42 16.549 22.333 17.03C22.44 17.0472 22.5371 17.1028 22.6061 17.1863C22.6751 17.2699 22.7113 17.3757 22.708 17.484C22.7071 17.5526 22.6935 17.6204 22.668 17.684C22.453 18.192 21.532 18.566 19.861 18.818C19.7935 18.9818 19.7442 19.1525 19.714 19.327C19.6858 19.4939 19.646 19.6586 19.595 19.82C19.5698 19.9307 19.5051 20.0285 19.4131 20.0951C19.3212 20.1617 19.2081 20.1926 19.095 20.182H19.068C18.9064 20.1735 18.7459 20.1514 18.588 20.116C18.2155 20.0373 17.8357 19.9984 17.455 20C17.1819 19.9961 16.909 20.0182 16.64 20.066C16.0763 20.2139 15.5517 20.4832 15.103 20.855C14.2776 21.5524 13.2436 21.9552 12.164 22C12.111 22 12.058 21.987 12.004 21.987H11.871C10.7934 21.9471 9.76144 21.5415 8.945 20.837C8.50107 20.4661 7.98119 20.1971 7.422 20.049C7.14788 20.0077 6.8712 19.9856 6.594 19.983C6.21211 19.9883 5.83177 20.0328 5.459 20.116C5.30075 20.153 5.13938 20.1751 4.977 20.182C4.86012 20.1903 4.74403 20.1573 4.64899 20.0888C4.55395 20.0203 4.486 19.9205 4.457 19.807C4.403 19.636 4.377 19.46 4.337 19.301C4.30655 19.1264 4.25691 18.9557 4.189 18.792C2.477 18.592 1.557 18.22 1.343 17.699C1.31445 17.6359 1.29783 17.5681 1.294 17.499C1.28981 17.3905 1.32572 17.2842 1.39489 17.2005C1.46406 17.1167 1.56163 17.0614 1.669 17.045C4.581 16.563 5.889 13.584 5.944 13.458L5.958 13.432C6.03346 13.3194 6.08222 13.1911 6.10059 13.0568C6.11896 12.9225 6.10645 12.7857 6.064 12.657C5.89 12.27 5.275 12.07 4.876 11.935C4.77028 11.9082 4.66694 11.8727 4.567 11.829C3.579 11.44 3.445 11 3.5 10.692C3.57443 10.4776 3.71601 10.2929 3.90372 10.1654C4.09143 10.0379 4.31527 9.97424 4.542 9.984C4.6593 9.9836 4.77552 10.0064 4.884 10.051C5.18981 10.2085 5.5255 10.2995 5.869 10.318C6.01313 10.323 6.15611 10.2906 6.284 10.224L6.243 9.717C6.03915 8.27442 6.13205 6.80541 6.516 5.4C6.95585 4.37993 7.68864 3.5134 8.6215 2.91025C9.55435 2.3071 10.6453 1.99448 11.756 2.012L12.13 2H12.184Z" fill="black"></path>
</svg>