<svg width="24" height="24" viewBox="0 0 24 24" fill="none" xmlns="http://www.w3.org/2000/svg">
<path d="M17 8C17 8.66304 16.7366 9.29893 16.2678 9.76777C15.7989 10.2366 15.163 10.5 14.5 10.5C13.837 10.5 13.2011 10.2366 12.7322 9.76777C12.2634 9.29893 12 8.66304 12 8" stroke="black"></path>
<path d="M7 8C7 8.66304 6.73661 9.29893 6.26777 9.76777C5.79893 10.2366 5.16304 10.5 4.5 10.5C3.83696 10.5 3.20107 10.2366 2.73223 9.76777C2.26339 9.29893 2 8.66304 2 8L4 4H20L22 8C22 8.66304 21.7366 9.29893 21.2678 9.76777C20.7989 10.2366 20.163 10.5 19.5 10.5C18.837 10.5 18.2011 10.2366 17.7322 9.76777C17.2634 9.29893 17 8.66304 17 8" stroke="black"></path>
<path d="M12 8C12 8.66304 11.7366 9.29893 11.2678 9.76777C10.7989 10.2366 10.163 10.5 9.5 10.5C8.83696 10.5 8.20107 10.2366 7.73223 9.76777C7.26339 9.29893 7 8.66304 7 8" stroke="black"></path>
<path d="M20 10.44V21H4V10.44" stroke="black"></path>
<path d="M9.5 21V14H14.5V21" stroke="black"></path>
</svg>