<svg width="24" height="24" viewBox="0 0 24 24" fill="none" xmlns="http://www.w3.org/2000/svg">
<path d="M3.5 3.5L20.5 20.5" stroke="black" stroke-miterlimit="10"></path>
<path d="M12 0.5V3" stroke="black"></path>
<path d="M23.5 12H21" stroke="black"></path>
<path d="M0.5 12H3" stroke="black"></path>
<path d="M20.1 3.90002L18.4 5.60002" stroke="black"></path>
<path d="M12 23.5V21" stroke="black"></path>
<path d="M3.90002 20.1L5.60002 18.4" stroke="black"></path>
<path d="M17.4 13C17.4875 12.6743 17.5213 12.3366 17.5 12C17.5 10.5413 16.9205 9.14236 15.8891 8.11091C14.8576 7.07946 13.4587 6.5 12 6.5H11" stroke="black"></path>
<path d="M8.09999 8.09998C7.06565 9.13432 6.48456 10.5372 6.48456 12C6.48456 13.4628 7.06565 14.8656 8.09999 15.9C9.13434 16.9343 10.5372 17.5154 12 17.5154C13.4628 17.5154 14.8656 16.9343 15.9 15.9" stroke="black"></path>
</svg>