<svg width="24" height="24" viewBox="0 0 24 24" fill="none" xmlns="http://www.w3.org/2000/svg">
<path d="M16.79 11.27C16.7 11.23 16.62 11.19 16.53 11.15C16.38 8.31001 14.82 6.68001 12.21 6.66001C12.2 6.66001 12.19 6.66001 12.17 6.66001C10.61 6.66001 9.31 7.33001 8.51 8.54001L9.95 9.52001C10.55 8.61001 11.48 8.42001 12.17 8.42001H12.19C13.05 8.42001 13.7 8.68001 14.12 9.16001C14.43 9.51001 14.63 10 14.73 10.62C13.97 10.49 13.14 10.45 12.26 10.5C9.78 10.64 8.18 12.09 8.29 14.1C8.34 15.12 8.85 16 9.72 16.57C10.45 17.05 11.4 17.29 12.38 17.24C13.68 17.17 14.7 16.67 15.41 15.77C15.95 15.08 16.29 14.19 16.44 13.07C17.06 13.44 17.52 13.93 17.77 14.52C18.2 15.52 18.23 17.17 16.88 18.52C15.7 19.7 14.28 20.21 12.14 20.22C9.76 20.2 7.97 19.44 6.8 17.96C5.71 16.57 5.14 14.56 5.12 11.99C5.14 9.42001 5.71 7.41001 6.8 6.02001C7.97 4.53001 9.77 3.77001 12.14 3.76001C14.53 3.78001 16.36 4.54001 17.57 6.04001C18.16 6.77001 18.61 7.69001 18.91 8.77001L20.59 8.32001C20.23 7.00001 19.67 5.86001 18.9 4.92001C17.34 3.01001 15.07 2.03001 12.14 2.01001H12.13C9.21 2.03001 6.96 3.01001 5.45 4.93001C4.11 6.64001 3.41 9.02001 3.39 12V12.01C3.41 14.99 4.11 17.37 5.45 19.08C6.96 21 9.21 21.98 12.13 22H12.14C14.74 21.98 16.57 21.3 18.08 19.79C20.06 17.82 20 15.34 19.34 13.82C18.87 12.73 17.98 11.85 16.76 11.26L16.79 11.27ZM12.3 15.49C11.21 15.55 10.08 15.06 10.03 14.02C9.99 13.24 10.58 12.38 12.37 12.28C12.57 12.27 12.78 12.26 12.97 12.26C13.62 12.26 14.23 12.32 14.78 12.44C14.57 15.01 13.37 15.43 12.3 15.49Z" fill="black"></path>
</svg>