<svg width="24" height="24" viewBox="0 0 24 24" fill="none" xmlns="http://www.w3.org/2000/svg">
<path d="M12.442 2.017C13.534 2 14.617 2.008 15.7 2C15.7333 3.30012 16.2537 4.54031 17.158 5.475C18.1357 6.35334 19.3796 6.87864 20.691 6.967V10.325C19.4817 10.2953 18.291 10.0204 17.191 9.517C16.7223 9.2927 16.271 9.03364 15.841 8.742C15.833 11.175 15.85 13.608 15.825 16.033C15.7612 17.2107 15.3717 18.3476 14.7 19.317C14.1461 20.1176 13.4118 20.7768 12.5563 21.2415C11.7008 21.7061 10.7481 21.9632 9.775 21.992C8.5819 22.0458 7.39937 21.7471 6.375 21.133C5.53187 20.6323 4.81762 19.9412 4.2894 19.115C3.76118 18.2888 3.43365 17.3504 3.333 16.375C3.317 15.958 3.308 15.542 3.325 15.133C3.41006 14.2785 3.66967 13.4506 4.08773 12.7005C4.50579 11.9504 5.07341 11.2941 5.75542 10.7723C6.43743 10.2505 7.21932 9.87428 8.05264 9.66696C8.88597 9.45963 9.75299 9.42561 10.6 9.567C10.616 10.8 10.566 12.033 10.566 13.267C10.2104 13.1423 9.83375 13.0891 9.45757 13.1105C9.08138 13.1318 8.71313 13.2273 8.37395 13.3914C8.03478 13.5555 7.73137 13.785 7.48117 14.0667C7.23097 14.3484 7.0389 14.6768 6.916 15.033C6.78548 15.4676 6.74599 15.9244 6.8 16.375C6.90809 17.0619 7.26489 17.6852 7.80254 18.1262C8.34018 18.5673 9.02118 18.7953 9.716 18.767C10.1822 18.7533 10.6376 18.6234 11.0408 18.389C11.444 18.1547 11.7823 17.8233 12.025 17.425C12.2106 17.1637 12.3278 16.8602 12.366 16.542C12.45 15.05 12.416 13.567 12.425 12.075C12.434 8.717 12.417 5.367 12.442 2.017Z" fill="black"></path>
</svg>