<svg width="24" height="24" viewBox="0 0 24 24" fill="none" xmlns="http://www.w3.org/2000/svg">
<path d="M14.029 21.5C13.325 21.5562 12.617 21.4672 11.9488 21.2385C11.2806 21.0098 10.6666 20.6462 10.1447 20.1704C9.62281 19.6945 9.20425 19.1166 8.91497 18.4723C8.62569 17.828 8.47186 17.1312 8.463 16.425V10.216H6.55V7.763C7.60074 7.36225 8.51248 6.66497 9.17446 5.75588C9.83643 4.8468 10.2202 3.76503 10.279 2.642C10.2808 2.60577 10.2957 2.57141 10.3209 2.5453C10.3461 2.51919 10.3799 2.5031 10.416 2.5H13.2V7.34H17V10.216H13.185V16.13C13.153 16.373 13.1752 16.62 13.2498 16.8535C13.3244 17.0869 13.4498 17.301 13.6168 17.4803C13.7838 17.6597 13.9884 17.7999 14.216 17.8909C14.4435 17.982 14.6884 18.0216 14.933 18.007H15C15.526 17.9857 16.0444 17.8734 16.532 17.675L17.448 20.387C16.5166 21.1317 15.3532 21.5257 14.161 21.5H14.021H14.029Z" fill="black"></path>
</svg>