<svg width="24" height="24" viewBox="0 0 24 24" fill="none" xmlns="http://www.w3.org/2000/svg">
<path d="M22.459 5.5C21.673 5.84585 20.8404 6.07429 19.988 6.178C20.8859 5.63798 21.558 4.79113 21.88 3.794C21.0313 4.28777 20.1069 4.63783 19.144 4.83C18.5549 4.19862 17.7893 3.75923 16.947 3.56905C16.1047 3.37887 15.2246 3.44671 14.4214 3.76373C13.6181 4.08075 12.929 4.63226 12.4436 5.34647C11.9582 6.06067 11.6991 6.90447 11.7 7.768C11.7003 8.09878 11.7375 8.42848 11.811 8.751C10.0994 8.66902 8.42438 8.22724 6.89501 7.45446C5.36565 6.68168 4.01632 5.59525 2.935 4.266C2.54945 4.9224 2.34837 5.67076 2.353 6.432C2.35251 7.14076 2.52694 7.83869 2.86082 8.46388C3.1947 9.08907 3.67771 9.62221 4.267 10.016C3.58368 9.99413 2.91547 9.80933 2.318 9.477V9.53C2.31741 10.5242 2.66088 11.488 3.29011 12.2578C3.91933 13.0275 4.79554 13.5558 5.77 13.753C5.13887 13.9233 4.47742 13.949 3.835 13.828C4.1116 14.6836 4.6484 15.4315 5.3705 15.9673C6.0926 16.5032 6.96396 16.8002 7.863 16.817C6.34034 18.0125 4.45991 18.6613 2.524 18.659C2.18184 18.6582 1.83998 18.6385 1.5 18.6C3.47421 19.8632 5.76927 20.5337 8.113 20.532C9.72338 20.5438 11.3201 20.2356 12.8103 19.6253C14.3006 19.015 15.6548 18.1147 16.7943 16.9767C17.9338 15.8387 18.8359 14.4856 19.4481 12.9962C20.0604 11.5067 20.3707 9.91039 20.361 8.3C20.361 8.117 20.361 7.933 20.348 7.749C21.1934 7.13972 21.9224 6.38335 22.5 5.516L22.459 5.5Z" fill="black"></path>
</svg>