<svg width="24" height="24" viewBox="0 0 24 24" fill="none" xmlns="http://www.w3.org/2000/svg">
<path d="M15.07 2H8.93C3.327 2 2 3.327 2 8.93V15.07C2 20.673 3.327 22 8.93 22H15.07C20.67 22 22 20.673 22 15.07V8.93C22 3.327 20.659 2 15.07 2ZM18.147 16.269H16.693C16.143 16.269 15.973 15.832 14.985 14.83C14.124 13.997 13.743 13.884 13.532 13.884C13.232 13.884 13.15 13.969 13.15 14.378V15.691C13.15 16.044 13.037 16.256 12.106 16.256C11.2059 16.1974 10.3328 15.9247 9.55949 15.4604C8.78614 14.9961 8.1349 14.3539 7.66 13.587C6.52938 12.1732 5.74208 10.5165 5.36 8.747C5.36 8.535 5.445 8.337 5.86 8.337H7.306C7.673 8.337 7.814 8.507 7.956 8.902C8.675 10.977 9.875 12.802 10.369 12.802C10.553 12.802 10.637 12.717 10.637 12.252V10.1C10.581 9.111 10.058 9.027 10.058 8.675C10.0595 8.62855 10.0703 8.58286 10.0896 8.5406C10.109 8.49833 10.1365 8.46033 10.1706 8.42879C10.2048 8.39725 10.2449 8.37281 10.2885 8.35688C10.3322 8.34095 10.3786 8.33386 10.425 8.336H12.712C13.023 8.336 13.135 8.505 13.135 8.871V11.766C13.135 12.076 13.277 12.189 13.361 12.189C13.544 12.189 13.7 12.076 14.038 11.737C14.7728 10.834 15.3764 9.83179 15.831 8.76C15.8802 8.63338 15.9683 8.52561 16.0825 8.45213C16.1968 8.37865 16.3314 8.34325 16.467 8.351H17.92C18.357 8.351 18.457 8.576 18.357 8.887C17.8256 10.0729 17.1696 11.1989 16.4 12.246C16.245 12.5 16.188 12.612 16.4 12.896C16.555 13.107 17.063 13.545 17.4 13.94C17.9022 14.4365 18.3173 15.0139 18.628 15.648C18.769 16.057 18.557 16.268 18.148 16.268L18.147 16.269Z" fill="black"></path>
</svg>