<svg width="24" height="24" viewBox="0 0 24 24" fill="none" xmlns="http://www.w3.org/2000/svg">
<path fill-rule="evenodd" clip-rule="evenodd" d="M12 2C6.47715 2 2 6.47715 2 12C2 17.5228 6.47715 22 12 22C17.5228 22 22 17.5228 22 12C22 6.47715 17.5228 2 12 2ZM4.55066 7.02246C6.15777 4.62204 8.89433 3.04167 12 3.04167C14.2965 3.04167 16.3911 3.90578 17.9765 5.32659C16.988 5.34335 16.4298 6.3559 16.4792 6.9479C16.5255 7.61982 16.8501 8.15775 17.1963 8.73134C17.6283 9.44712 18.0938 10.2184 18.0938 11.375C18.0938 12.436 17.5975 13.9656 17.0664 15.6029C16.8675 16.2161 16.6636 16.8444 16.4792 17.4687L13.25 7.72915L14.2917 7.67707C14.8125 7.67707 14.7604 6.89582 14.2396 6.9479C12.625 7.10415 11.1146 7.05207 9.44792 6.9479C8.92708 6.89582 8.92708 7.67707 9.39583 7.67707L10.3333 7.72915L11.7396 11.5833L9.76042 17.5208L6.47917 7.72915L7.52083 7.67707C7.98958 7.67707 7.9375 6.89582 7.46875 6.9479L7.41315 6.95174C6.27147 7.03051 5.16693 7.10671 4.55066 7.02246ZM3.80319 8.38003C3.3136 9.48699 3.04167 10.7117 3.04167 12C3.04167 15.5094 5.05966 18.5475 7.99856 20.0172L3.80319 8.38003ZM9.53135 20.6139C10.3156 20.8382 11.1437 20.9583 12 20.9583C13.0399 20.9583 14.0384 20.7812 14.967 20.4553L12.2083 12.7812L9.53135 20.6139ZM16.6356 19.6672C19.2268 18.0973 20.9583 15.2508 20.9583 12C20.9583 10.5334 20.6059 9.14917 19.9812 7.92728C20.0075 8.15024 20.0208 8.38035 20.0208 8.61457C20.0208 9.49999 19.8646 10.5417 19.3438 11.8437L16.6356 19.6672Z" fill="black"></path>
</svg>